<svg width="24" height="18" viewBox="0 0 24 18" fill="none" xmlns="http://www.w3.org/2000/svg">
<path d="M2.02618 17.918H5.73197V8.91824L0.437988 4.94775V16.3298C0.437988 17.2086 1.15003 17.918 2.02618 17.918Z" fill="#4285F4"/>
<path d="M18.4375 17.918H22.1433C23.0221 17.918 23.7315 17.206 23.7315 16.3298V4.94775L18.4375 8.91824" fill="#34A853"/>
<path d="M18.4375 2.0363V8.91848L23.7315 4.94799V2.8304C23.7315 0.866334 21.4895 -0.253344 19.9198 0.924567" fill="#FBBC04"/>
<path d="M5.73193 8.91831V2.03613L12.0847 6.80072L18.4375 2.03613V8.91831L12.0847 13.6829" fill="#EA4335"/>
<path d="M0.437988 2.8304V4.94799L5.73197 8.91848V2.0363L4.24966 0.924567C2.67734 -0.253344 0.437988 0.866334 0.437988 2.8304" fill="#C5221F"/>
</svg>
