<svg width="23" height="23" viewBox="0 0 23 23" fill="none" xmlns="http://www.w3.org/2000/svg">
<path d="M7.46032 11.0957C7.46032 9.08512 9.09071 7.45484 11.1025 7.45484C13.1142 7.45484 14.7455 9.08512 14.7455 11.0957C14.7455 13.1062 13.1142 14.7365 11.1025 14.7365C9.09071 14.7365 7.46032 13.1062 7.46032 11.0957ZM5.49099 11.0957C5.49099 14.193 8.00323 16.7038 11.1025 16.7038C14.2017 16.7038 16.7139 14.193 16.7139 11.0957C16.7139 7.99829 14.2017 5.48755 11.1025 5.48755C8.00323 5.48755 5.49099 7.99829 5.49099 11.0957ZM15.6247 5.26519C15.6246 5.5244 15.7014 5.77782 15.8454 5.9934C15.9894 6.20899 16.1942 6.37705 16.4337 6.47634C16.6733 6.57563 16.937 6.60169 17.1914 6.55122C17.4458 6.50076 17.6795 6.37603 17.863 6.19281C18.0465 6.0096 18.1714 5.77612 18.2221 5.52191C18.2728 5.2677 18.247 5.00418 18.1478 4.76466C18.0487 4.52514 17.8807 4.32039 17.6651 4.17629C17.4495 4.03219 17.196 3.95523 16.9366 3.95512H16.9361C16.5884 3.95529 16.255 4.09335 16.0091 4.33898C15.7633 4.58462 15.625 4.91774 15.6247 5.26519V5.26519ZM6.68749 19.9856C5.62204 19.9371 5.04293 19.7597 4.65809 19.6099C4.14787 19.4113 3.78384 19.1749 3.40109 18.7929C3.01834 18.4109 2.78142 18.0475 2.58366 17.5376C2.43364 17.1531 2.25617 16.5742 2.20774 15.5094C2.15476 14.3582 2.14418 14.0123 2.14418 11.0957C2.14418 8.17916 2.15563 7.8343 2.20774 6.68211C2.25626 5.6173 2.43504 5.03951 2.58366 4.65393C2.78229 4.14402 3.01887 3.7802 3.40109 3.39769C3.78331 3.01517 4.147 2.77839 4.65809 2.58075C5.04276 2.43082 5.62204 2.25345 6.68749 2.20505C7.8394 2.1521 8.18543 2.14153 11.1025 2.14153C14.0195 2.14153 14.3659 2.15298 15.5187 2.20505C16.5842 2.25354 17.1623 2.43222 17.5481 2.58075C18.0583 2.77839 18.4224 3.01569 18.8051 3.39769C19.1879 3.77968 19.4239 4.14402 19.6226 4.65393C19.7726 5.03837 19.95 5.6173 19.9985 6.68211C20.0515 7.8343 20.062 8.17916 20.062 11.0957C20.062 14.0123 20.0515 14.3572 19.9985 15.5094C19.95 16.5742 19.7716 17.1529 19.6226 17.5376C19.4239 18.0475 19.1874 18.4113 18.8051 18.7929C18.4229 19.1746 18.0583 19.4113 17.5481 19.6099C17.1635 19.7598 16.5842 19.9372 15.5187 19.9856C14.3668 20.0385 14.0208 20.0491 11.1025 20.0491C8.18412 20.0491 7.83905 20.0385 6.68749 19.9856V19.9856ZM6.597 0.240213C5.43364 0.293161 4.63868 0.477518 3.94444 0.747499C3.22545 1.02631 2.6168 1.40035 2.00858 2.00724C1.40037 2.61413 1.02706 3.22338 0.748087 3.94193C0.477944 4.63619 0.293477 5.43024 0.240497 6.59291C0.186643 7.75741 0.174316 8.1297 0.174316 11.0957C0.174316 14.0616 0.186643 14.4339 0.240497 15.5984C0.293477 16.7612 0.477944 17.5551 0.748087 18.2494C1.02706 18.9675 1.40045 19.5774 2.00858 20.1841C2.61671 20.7907 3.22545 21.1642 3.94444 21.4438C4.63999 21.7138 5.43364 21.8982 6.597 21.9511C7.76281 22.004 8.13472 22.0172 11.1025 22.0172C14.0702 22.0172 14.4427 22.0049 15.6079 21.9511C16.7714 21.8982 17.5658 21.7138 18.2605 21.4438C18.979 21.1642 19.5881 20.791 20.1963 20.1841C20.8045 19.5772 21.1771 18.9675 21.4568 18.2494C21.727 17.5551 21.9123 16.7611 21.9644 15.5984C22.0174 14.433 22.0297 14.0616 22.0297 11.0957C22.0297 8.1297 22.0174 7.75741 21.9644 6.59291C21.9114 5.43015 21.727 4.63576 21.4568 3.94193C21.1771 3.22382 20.8036 2.61509 20.1963 2.00724C19.5891 1.39939 18.979 1.02631 18.2613 0.747499C17.5658 0.477518 16.7713 0.292287 15.6088 0.240213C14.4436 0.187266 14.0711 0.174072 11.1033 0.174072C8.1356 0.174072 7.76281 0.186392 6.597 0.240213Z" fill="url(#paint0_radial_267_339)"/>
<path d="M7.46032 11.0957C7.46032 9.08512 9.09071 7.45484 11.1025 7.45484C13.1142 7.45484 14.7455 9.08512 14.7455 11.0957C14.7455 13.1062 13.1142 14.7365 11.1025 14.7365C9.09071 14.7365 7.46032 13.1062 7.46032 11.0957ZM5.49099 11.0957C5.49099 14.193 8.00323 16.7038 11.1025 16.7038C14.2017 16.7038 16.7139 14.193 16.7139 11.0957C16.7139 7.99829 14.2017 5.48755 11.1025 5.48755C8.00323 5.48755 5.49099 7.99829 5.49099 11.0957ZM15.6247 5.26519C15.6246 5.5244 15.7014 5.77782 15.8454 5.9934C15.9894 6.20899 16.1942 6.37705 16.4337 6.47634C16.6733 6.57563 16.937 6.60169 17.1914 6.55122C17.4458 6.50076 17.6795 6.37603 17.863 6.19281C18.0465 6.0096 18.1714 5.77612 18.2221 5.52191C18.2728 5.2677 18.247 5.00418 18.1478 4.76466C18.0487 4.52514 17.8807 4.32039 17.6651 4.17629C17.4495 4.03219 17.196 3.95523 16.9366 3.95512H16.9361C16.5884 3.95529 16.255 4.09335 16.0091 4.33898C15.7633 4.58462 15.625 4.91774 15.6247 5.26519V5.26519ZM6.68749 19.9856C5.62204 19.9371 5.04293 19.7597 4.65809 19.6099C4.14787 19.4113 3.78384 19.1749 3.40109 18.7929C3.01834 18.4109 2.78142 18.0475 2.58366 17.5376C2.43364 17.1531 2.25617 16.5742 2.20774 15.5094C2.15476 14.3582 2.14418 14.0123 2.14418 11.0957C2.14418 8.17916 2.15563 7.8343 2.20774 6.68211C2.25626 5.6173 2.43504 5.03951 2.58366 4.65393C2.78229 4.14402 3.01887 3.7802 3.40109 3.39769C3.78331 3.01517 4.147 2.77839 4.65809 2.58075C5.04276 2.43082 5.62204 2.25345 6.68749 2.20505C7.8394 2.1521 8.18543 2.14153 11.1025 2.14153C14.0195 2.14153 14.3659 2.15298 15.5187 2.20505C16.5842 2.25354 17.1623 2.43222 17.5481 2.58075C18.0583 2.77839 18.4224 3.01569 18.8051 3.39769C19.1879 3.77968 19.4239 4.14402 19.6226 4.65393C19.7726 5.03837 19.95 5.6173 19.9985 6.68211C20.0515 7.8343 20.062 8.17916 20.062 11.0957C20.062 14.0123 20.0515 14.3572 19.9985 15.5094C19.95 16.5742 19.7716 17.1529 19.6226 17.5376C19.4239 18.0475 19.1874 18.4113 18.8051 18.7929C18.4229 19.1746 18.0583 19.4113 17.5481 19.6099C17.1635 19.7598 16.5842 19.9372 15.5187 19.9856C14.3668 20.0385 14.0208 20.0491 11.1025 20.0491C8.18412 20.0491 7.83905 20.0385 6.68749 19.9856V19.9856ZM6.597 0.240213C5.43364 0.293161 4.63868 0.477518 3.94444 0.747499C3.22545 1.02631 2.6168 1.40035 2.00858 2.00724C1.40037 2.61413 1.02706 3.22338 0.748087 3.94193C0.477944 4.63619 0.293477 5.43024 0.240497 6.59291C0.186643 7.75741 0.174316 8.1297 0.174316 11.0957C0.174316 14.0616 0.186643 14.4339 0.240497 15.5984C0.293477 16.7612 0.477944 17.5551 0.748087 18.2494C1.02706 18.9675 1.40045 19.5774 2.00858 20.1841C2.61671 20.7907 3.22545 21.1642 3.94444 21.4438C4.63999 21.7138 5.43364 21.8982 6.597 21.9511C7.76281 22.004 8.13472 22.0172 11.1025 22.0172C14.0702 22.0172 14.4427 22.0049 15.6079 21.9511C16.7714 21.8982 17.5658 21.7138 18.2605 21.4438C18.979 21.1642 19.5881 20.791 20.1963 20.1841C20.8045 19.5772 21.1771 18.9675 21.4568 18.2494C21.727 17.5551 21.9123 16.7611 21.9644 15.5984C22.0174 14.433 22.0297 14.0616 22.0297 11.0957C22.0297 8.1297 22.0174 7.75741 21.9644 6.59291C21.9114 5.43015 21.727 4.63576 21.4568 3.94193C21.1771 3.22382 20.8036 2.61509 20.1963 2.00724C19.5891 1.39939 18.979 1.02631 18.2613 0.747499C17.5658 0.477518 16.7713 0.292287 15.6088 0.240213C14.4436 0.187266 14.0711 0.174072 11.1033 0.174072C8.1356 0.174072 7.76281 0.186392 6.597 0.240213Z" fill="url(#paint1_radial_267_339)"/>
<defs>
<radialGradient id="paint0_radial_267_339" cx="0" cy="0" r="1" gradientUnits="userSpaceOnUse" gradientTransform="translate(3.07805 22.1204) scale(28.5315 28.5144)">
<stop offset="0.09" stop-color="#FA8F21"/>
<stop offset="0.78" stop-color="#D82D7E"/>
</radialGradient>
<radialGradient id="paint1_radial_267_339" cx="0" cy="0" r="1" gradientUnits="userSpaceOnUse" gradientTransform="translate(13.4292 23.099) scale(22.4868 22.4733)">
<stop offset="0.64" stop-color="#8C3AAA" stop-opacity="0"/>
<stop offset="1" stop-color="#8C3AAA"/>
</radialGradient>
</defs>
</svg>
