<svg width="23" height="23" viewBox="0 0 23 23" fill="none" xmlns="http://www.w3.org/2000/svg">
<path d="M0.174316 1.7397C0.174316 0.875522 0.897793 0.174072 1.78963 0.174072H20.4153C21.3075 0.174072 22.0306 0.875522 22.0306 1.7397V20.465C22.0306 21.3294 21.3075 22.0303 20.4153 22.0303H1.78963C0.897879 22.0303 0.174316 21.3295 0.174316 20.4652V1.73944V1.7397Z" fill="#006699"/>
<path d="M6.8159 18.4649V8.62516H3.54532V18.4649H6.81625H6.8159ZM5.18129 7.28194C6.32158 7.28194 7.03148 6.52636 7.03148 5.5821C7.01014 4.61633 6.32158 3.88184 5.20298 3.88184C4.08361 3.88184 3.35254 4.61633 3.35254 5.58201C3.35254 6.52627 4.06218 7.28185 5.15986 7.28185H5.18104L5.18129 7.28194ZM8.62622 18.4649H11.8965V12.9705C11.8965 12.6769 11.9179 12.3824 12.0043 12.1726C12.2406 11.5848 12.7787 10.9763 13.6824 10.9763C14.8656 10.9763 15.3392 11.8786 15.3392 13.2015V18.4649H18.6094V12.8231C18.6094 9.80087 16.9961 8.39447 14.8444 8.39447C13.0803 8.39447 12.3055 9.38048 11.875 10.052H11.8968V8.6255H8.62639C8.66908 9.54859 8.62613 18.4653 8.62613 18.4653L8.62622 18.4649Z" fill="white"/>
</svg>
