<svg width="60" height="60" viewBox="0 0 60 60" fill="none" xmlns="http://www.w3.org/2000/svg">
<path d="M33.6927 4.19703L39.7714 16.5139C40.3715 17.7297 41.5313 18.5725 42.8731 18.7674L56.4657 20.7424C59.8446 21.2334 61.1938 25.3857 58.7488 27.769L48.9132 37.3564C47.9423 38.3028 47.4993 39.6664 47.7284 41.0027L50.0503 54.5402C50.6275 57.9054 47.0953 60.4718 44.0731 58.8829L31.9156 52.4913C30.7156 51.8604 29.2817 51.8604 28.0817 52.4913L15.9242 58.8829C12.902 60.4718 9.36981 57.9054 9.94696 54.5402L12.2689 41.0027C12.498 39.6664 12.055 38.3028 11.0841 37.3564L1.24853 27.7691C-1.19642 25.3858 0.152694 21.2334 3.5316 20.7425L17.124 18.7674C18.4659 18.5725 19.6257 17.7297 20.2258 16.5139L26.3045 4.19703C27.8156 1.13517 32.1817 1.13517 33.6927 4.19703Z" fill="url(#paint0_linear_339_716)"/>
<path d="M58.7487 27.7693C61.1937 25.386 59.8445 21.2336 56.4656 20.7427L42.8731 18.7676C41.5313 18.5726 40.3715 17.7299 39.7714 16.514L33.6926 4.19717C32.5117 1.80446 29.5874 1.28166 27.6445 2.62865C28.1878 3.00534 28.6544 3.52814 28.9846 4.19717L35.0633 16.514C35.5386 17.4774 36.3663 18.2049 37.3566 18.5632L35.1624 20.7761C34.4572 21.4873 34.8736 22.6985 35.8671 22.8256L39.8637 23.3371C40.2582 23.3876 40.6027 23.629 40.7846 23.9826L42.629 27.5648C43.0875 28.4554 44.3681 28.4335 44.796 27.528L46.5174 23.8851C46.6874 23.5255 47.0234 23.2725 47.416 23.2087L51.3929 22.5615C51.4263 22.5561 51.4589 22.5494 51.4909 22.5416C52.6092 22.2689 53.7809 22.7497 54.2672 23.793C54.8918 25.1329 55.1672 26.6713 54.0408 27.7693L44.2052 37.3566C43.2343 38.303 42.7913 39.6666 43.0204 41.0029L45.3423 54.5404C45.6388 56.2687 44.85 57.7845 43.6044 58.6367L44.0731 58.8832C47.0953 60.472 50.6275 57.9058 50.0503 54.5406L47.7283 41.0028C47.4992 39.6665 47.9422 38.3029 48.9131 37.3565L58.7487 27.7693Z" fill="url(#paint1_linear_339_716)"/>
<path d="M41.319 9.56997L44.9167 11.384C45.2719 11.5631 45.6923 11.5559 46.0413 11.3648L49.5752 9.42951C50.4538 8.94847 51.5025 9.6835 51.35 10.6735L50.7365 14.6556C50.6759 15.0487 50.8127 15.4464 51.1021 15.7192L54.0347 18.4822C54.7637 19.169 54.3887 20.3936 53.4001 20.5544L49.4232 21.2016C49.0307 21.2654 48.6947 21.5184 48.5247 21.878L46.8032 25.5209C46.3752 26.4265 45.0947 26.4483 44.6363 25.5577L42.7919 21.9755C42.6098 21.6219 42.2654 21.3805 41.8709 21.33L37.8743 20.8185C36.8809 20.6914 36.4644 19.4802 37.1697 18.769L40.0066 15.9079C40.2867 15.6255 40.4097 15.2234 40.3359 14.8326L39.5873 10.8736C39.4014 9.88925 40.4247 9.11893 41.319 9.56997Z" fill="url(#paint2_linear_339_716)"/>
<path d="M54.0344 18.482L51.1017 15.7191C50.8122 15.4464 50.6755 15.0487 50.7361 14.6556L51.3496 10.6735C51.5021 9.6835 50.4533 8.94847 49.5749 9.42951C47.6874 10.4631 46.3885 12.3163 46.0609 14.4432L46.0282 14.6555C45.9676 15.0487 46.1044 15.4463 46.3938 15.7191L49.3264 18.482C50.0554 19.1688 49.6804 20.3935 48.6918 20.5543L44.715 21.2013C44.3224 21.2652 43.9864 21.5181 43.8164 21.8778C43.4921 22.564 43.5057 23.3622 43.8531 24.037L44.6359 25.5575C45.0944 26.448 46.375 26.4262 46.8029 25.5207L48.5243 21.8778C48.6942 21.5181 49.0303 21.2652 49.4229 21.2013L53.3998 20.5543C54.3884 20.3935 54.7635 19.169 54.0344 18.482Z" fill="url(#paint3_linear_339_716)"/>
<path d="M7.50741 36.8311L7.9741 39.4831C8.02021 39.7449 8.19209 39.9672 8.43384 40.0777L10.883 41.1967C11.4918 41.4749 11.5175 42.3304 10.9263 42.6445L8.54831 43.9079C8.31361 44.0326 8.15526 44.2648 8.12491 44.5289L7.81751 47.204C7.74105 47.869 6.93532 48.1577 6.45393 47.6925L4.51766 45.8213C4.3265 45.6366 4.05674 45.5578 3.79617 45.6105L1.15699 46.1448C0.500903 46.2776 -0.0226026 45.6005 0.271031 44.999L1.45227 42.5792C1.56886 42.3404 1.5605 42.0594 1.4298 41.828L0.106098 39.483C-0.222946 38.9001 0.259267 38.1929 0.922061 38.2864L3.58841 38.6621C3.85158 38.6992 4.11627 38.6043 4.29603 38.4086L6.11712 36.4251C6.56981 35.9319 7.39142 36.172 7.50741 36.8311Z" fill="url(#paint4_linear_339_716)"/>
<path d="M10.8828 41.1965L8.43358 40.0775C8.19183 39.9671 8.01984 39.7447 7.97384 39.483L7.50715 36.831C7.39116 36.1717 6.56955 35.9317 6.11686 36.4248L5.83546 36.7312C5.15397 37.4734 4.8568 38.4905 5.0315 39.483C5.07762 39.7447 5.24949 39.9671 5.49125 40.0775L7.94043 41.1965C8.54923 41.4748 8.57487 42.3303 7.98372 42.6444L5.60571 43.9076C5.37102 44.0323 5.21267 44.2645 5.18232 44.5286C5.05621 45.6265 5.44819 46.7205 6.24274 47.4885L6.45367 47.6924C6.93506 48.1575 7.74079 47.8688 7.81726 47.2038L8.12466 44.5287C8.15501 44.2646 8.31335 44.0324 8.54805 43.9077L10.9261 42.6444C11.5172 42.3304 11.4917 41.4748 10.8828 41.1965Z" fill="url(#paint5_linear_339_716)"/>
<path d="M8.92722 22.3365C7.39623 19.7429 5.23021 17.5694 2.64221 16.0298C1.73189 15.4883 1.73189 14.1704 2.64221 13.6289C5.23021 12.0893 7.39623 9.916 8.92722 7.32224C9.46884 6.40463 10.7938 6.40463 11.3355 7.32224C12.8665 9.916 15.0325 12.0893 17.6205 13.6289C18.5308 14.1704 18.5308 15.4883 17.6205 16.0298C15.0325 17.5694 12.8665 19.7427 11.3355 22.3365C10.7938 23.2541 9.46884 23.2541 8.92722 22.3365Z" fill="url(#paint6_linear_339_716)"/>
<path d="M17.6204 13.6288C15.0333 12.0898 12.8679 9.9173 11.337 7.32471C10.7938 6.40487 9.47021 6.40228 8.92718 7.32224C8.92118 7.33247 8.91506 7.34271 8.90894 7.35294C8.75601 7.61058 8.7686 7.93338 8.93518 8.18231C10.4182 10.3973 12.3817 12.2627 14.678 13.6288C15.5905 14.1716 15.5905 15.4869 14.678 16.0298C12.3816 17.3959 10.4182 19.2613 8.93518 21.4763C8.76848 21.7252 8.75601 22.0482 8.90894 22.3058C8.91506 22.316 8.92106 22.3263 8.92706 22.3364C9.47009 23.2563 10.7938 23.2535 11.337 22.3337C12.8678 19.7412 15.0333 17.5688 17.6203 16.0298C18.5274 15.4902 18.5275 14.1683 17.6204 13.6288Z" fill="url(#paint7_linear_339_716)"/>
<path d="M54.5276 55.0695C53.6345 53.5564 52.3709 52.2886 50.8612 51.3904C50.3301 51.0745 50.3301 50.3056 50.8612 49.9898C52.3709 49.0917 53.6345 47.8237 54.5276 46.3106C54.8436 45.7754 55.6166 45.7754 55.9325 46.3106C56.8256 47.8237 58.0892 49.0916 59.5989 49.9898C60.1299 50.3056 60.1299 51.0745 59.5989 51.3904C58.0892 52.2886 56.8256 53.5564 55.9325 55.0695C55.6165 55.6048 54.8436 55.6048 54.5276 55.0695Z" fill="url(#paint8_linear_339_716)"/>
<path d="M59.5992 49.9899C58.0895 49.0918 56.8259 47.8239 55.9328 46.3109C55.6175 45.7767 54.84 45.7829 54.5243 46.3169C54.5192 46.3254 54.5143 46.3339 54.5092 46.3423C54.0744 47.0729 54.1956 48.0107 54.8129 48.5952C55.3725 49.125 55.9906 49.5936 56.6569 49.9899C57.1903 50.3072 57.1903 51.0733 56.6569 51.3907C55.9906 51.787 55.3724 52.2556 54.8129 52.7854C54.1956 53.3699 54.0745 54.3077 54.5092 55.0383C54.5143 55.0468 54.5193 55.0552 54.5243 55.0637C54.84 55.5977 55.6174 55.6039 55.9328 55.0697C56.8259 53.5566 58.0895 52.2888 59.5992 51.3906C60.1339 51.0726 60.1339 50.308 59.5992 49.9899Z" fill="url(#paint9_linear_339_716)"/>
<path d="M54.5276 9.79487C53.6345 8.28176 52.3709 7.01394 50.8612 6.11574C50.3301 5.79988 50.3301 5.03097 50.8612 4.7151C52.3709 3.81703 53.6345 2.54908 54.5276 1.03597C54.8436 0.500704 55.6166 0.500704 55.9325 1.03597C56.8256 2.54908 58.0892 3.81691 59.5989 4.7151C60.1299 5.03097 60.1299 5.79988 59.5989 6.11574C58.0892 7.01394 56.8256 8.28176 55.9325 9.79487C55.6165 10.3301 54.8436 10.3301 54.5276 9.79487Z" fill="url(#paint10_linear_339_716)"/>
<path d="M59.5992 4.71502C58.0895 3.81695 56.8259 2.549 55.9328 1.03601C55.6175 0.5018 54.84 0.508035 54.5243 1.04201C54.5192 1.05048 54.5143 1.05895 54.5092 1.06742C54.0744 1.79798 54.1956 2.73582 54.8129 3.32026C55.3725 3.85012 55.9906 4.31869 56.6569 4.71502C57.1903 5.0323 57.1903 5.79839 56.6569 6.11578C55.9906 6.51212 55.3724 6.98068 54.8129 7.51054C54.1956 8.09499 54.0745 9.03283 54.5092 9.76338C54.5143 9.77185 54.5193 9.78032 54.5243 9.78879C54.84 10.3228 55.6174 10.329 55.9328 9.79479C56.8259 8.28168 58.0895 7.01386 59.5992 6.11566C60.1339 5.79756 60.1339 5.03301 59.5992 4.71502Z" fill="url(#paint11_linear_339_716)"/>
<path d="M29.3066 51.1197C28.1065 50.4888 26.6727 50.4888 25.4726 51.1197L13.3152 57.5113C12.5233 57.9276 11.6969 58.0564 10.918 57.9625C12.0987 59.2881 14.1036 59.8405 15.9244 58.8832L28.0819 52.4916C29.282 51.8607 30.7157 51.8607 31.9157 52.4916L29.3066 51.1197Z" fill="url(#paint12_linear_339_716)"/>
<defs>
<linearGradient id="paint0_linear_339_716" x1="-8.30422" y1="30.633" x2="62.7206" y2="30.633" gradientUnits="userSpaceOnUse">
<stop stop-color="#FEF056"/>
<stop offset="0.5213" stop-color="#F4D902"/>
<stop offset="1" stop-color="#FE9738"/>
</linearGradient>
<linearGradient id="paint1_linear_339_716" x1="-21.7638" y1="30.6332" x2="56.1937" y2="30.6332" gradientUnits="userSpaceOnUse">
<stop stop-color="#FEF056"/>
<stop offset="0.5213" stop-color="#F4D902"/>
<stop offset="1" stop-color="#FE9738"/>
</linearGradient>
<linearGradient id="paint2_linear_339_716" x1="34.8734" y1="17.7456" x2="54.7091" y2="17.7456" gradientUnits="userSpaceOnUse">
<stop stop-color="#FEF056"/>
<stop offset="0.5213" stop-color="#F4D902"/>
<stop offset="1" stop-color="#FE9738"/>
</linearGradient>
<linearGradient id="paint3_linear_339_716" x1="32.7948" y1="17.7456" x2="50.3235" y2="17.7456" gradientUnits="userSpaceOnUse">
<stop stop-color="#FEF056"/>
<stop offset="0.5213" stop-color="#F4D902"/>
<stop offset="1" stop-color="#FE9738"/>
</linearGradient>
<linearGradient id="paint4_linear_339_716" x1="-2.66648" y1="42.0416" x2="14.119" y2="42.0416" gradientUnits="userSpaceOnUse">
<stop stop-color="#FEF056"/>
<stop offset="0.5213" stop-color="#F4D902"/>
<stop offset="1" stop-color="#FE9738"/>
</linearGradient>
<linearGradient id="paint5_linear_339_716" x1="-3.70587" y1="42.0414" x2="10.2359" y2="42.0414" gradientUnits="userSpaceOnUse">
<stop stop-color="#FEF056"/>
<stop offset="0.5213" stop-color="#F4D902"/>
<stop offset="1" stop-color="#FE9738"/>
</linearGradient>
<linearGradient id="paint6_linear_339_716" x1="-0.999512" y1="14.8294" x2="20.085" y2="14.8294" gradientUnits="userSpaceOnUse">
<stop stop-color="#FEF056"/>
<stop offset="0.5213" stop-color="#F4D902"/>
<stop offset="1" stop-color="#FE9738"/>
</linearGradient>
<linearGradient id="paint7_linear_339_716" x1="-2.68736" y1="14.8293" x2="15.6988" y2="14.8293" gradientUnits="userSpaceOnUse">
<stop stop-color="#FEF056"/>
<stop offset="0.5213" stop-color="#F4D902"/>
<stop offset="1" stop-color="#FE9738"/>
</linearGradient>
<linearGradient id="paint8_linear_339_716" x1="48.7367" y1="50.6902" x2="60.0572" y2="50.6902" gradientUnits="userSpaceOnUse">
<stop stop-color="#FEF056"/>
<stop offset="0.5213" stop-color="#F4D902"/>
<stop offset="1" stop-color="#FE9738"/>
</linearGradient>
<linearGradient id="paint9_linear_339_716" x1="40.9396" y1="50.6904" x2="61.0603" y2="50.6904" gradientUnits="userSpaceOnUse">
<stop stop-color="#FEF056"/>
<stop offset="0.5213" stop-color="#F4D902"/>
<stop offset="1" stop-color="#FE9738"/>
</linearGradient>
<linearGradient id="paint10_linear_339_716" x1="48.7367" y1="5.41542" x2="60.0572" y2="5.41542" gradientUnits="userSpaceOnUse">
<stop stop-color="#FEF056"/>
<stop offset="0.5213" stop-color="#F4D902"/>
<stop offset="1" stop-color="#FE9738"/>
</linearGradient>
<linearGradient id="paint11_linear_339_716" x1="40.9396" y1="5.41534" x2="61.0603" y2="5.41534" gradientUnits="userSpaceOnUse">
<stop stop-color="#FEF056"/>
<stop offset="0.5213" stop-color="#F4D902"/>
<stop offset="1" stop-color="#FE9738"/>
</linearGradient>
<linearGradient id="paint12_linear_339_716" x1="-1.48982" y1="55.0058" x2="35.967" y2="55.0058" gradientUnits="userSpaceOnUse">
<stop stop-color="#FEF056"/>
<stop offset="0.5213" stop-color="#F4D902"/>
<stop offset="1" stop-color="#FE9738"/>
</linearGradient>
</defs>
</svg>
