<svg width="232" height="29" viewBox="0 0 232 29" fill="none" xmlns="http://www.w3.org/2000/svg">
<path d="M105.814 13.7618C110.694 13.7618 115.575 13.6324 120.446 13.7877C128.386 14.0378 136.335 14.3397 144.145 16.0045C145.29 16.246 146.425 16.6169 147.517 17.0568C148.913 17.6175 149.962 18.5922 149.919 20.2138C149.875 21.8354 148.748 22.7153 147.353 23.2673C144.995 24.2075 142.516 24.6647 140.037 25.1046C129.253 27.0108 118.392 28.1063 107.444 28.5548C104.063 28.6928 100.691 29.0379 97.3104 28.9689C96.6516 28.9516 95.6027 29.2363 95.4987 28.3651C95.3773 27.3559 96.4435 27.3731 97.1977 27.2437C107.054 25.5876 116.97 24.3973 126.869 23.0603C131.689 22.4047 136.509 21.7147 141.276 20.2138C139.777 19.9982 138.277 19.6877 136.769 19.5928C121.443 18.5836 106.091 18.3076 90.7484 18.6957C80.5198 18.9545 70.2998 19.2736 60.0798 18.6008C59.5337 18.5663 58.979 18.5232 58.4415 18.3938C57.1413 18.0833 56.0057 17.5054 55.971 15.97C55.9364 14.4519 57.0199 13.7532 58.3202 13.4254C59.6898 13.0804 61.0854 12.8734 62.4463 12.3817C57.6527 12.9338 52.8591 13.4168 48.0828 14.0551C34.7596 15.8492 21.4364 17.6865 8.12178 19.5841C6.05871 19.8774 3.8743 19.8947 2.06262 21.2403C1.40382 21.7233 0.641004 21.6026 0.24226 20.8521C-0.295177 19.8343 0.0948992 18.9631 1.08309 18.5146C3.03347 17.6175 5.16587 17.3328 7.25495 17.0137C28.8738 13.7187 50.5273 10.6825 72.2502 8.18102C89.2835 6.21437 106.351 4.48061 123.463 3.24714C136.647 2.29831 149.832 1.49612 163.034 0.866444C182.789 -0.082379 202.535 -0.142757 222.299 0.167767C224.882 0.210896 227.466 0.590435 230.04 0.892333C231.124 1.02172 232.034 1.522 231.999 2.82447C231.964 3.98894 231.106 4.39434 230.135 4.62723C225.524 5.74857 220.791 5.94697 216.093 6.28337C203.151 7.21495 190.192 7.96537 177.241 8.78481C165.001 9.56112 152.753 10.3202 140.513 11.131C128.941 11.8987 117.369 12.744 105.805 13.5462C105.805 13.6152 105.805 13.6842 105.805 13.7532L105.814 13.7618ZM214.61 3.15225C165.877 2.98837 117.352 6.30924 68.9562 11.7607C117.464 8.19826 166.068 6.14536 214.61 3.15225Z" fill="#FC9EB0"/>
</svg>
