<svg width="81" height="5" viewBox="0 0 81 5" fill="none" xmlns="http://www.w3.org/2000/svg">
<path d="M46.1828 0.0172706C49.1927 0.0172706 52.2055 -0.0277962 55.2126 0.0276701C59.612 0.11087 64.0114 0.183678 68.4079 0.415943C71.688 0.589276 74.9764 0.745271 78.2202 1.47327C78.9191 1.62927 79.6068 1.8546 80.2361 2.27406C80.5591 2.48899 81.0241 2.63806 80.999 3.20312C80.974 3.83405 80.4644 3.88605 80.0969 4.03858C79.178 4.41991 78.2174 4.51698 77.2568 4.57245C75.2325 4.68685 73.2138 4.41298 71.1923 4.35058C69.6275 4.30204 68.0654 4.09405 66.4978 4.05245C61.3912 3.92072 56.2874 3.71965 51.178 3.60872C41.7166 3.40072 32.258 3.41112 22.7993 3.49086C17.1108 3.53592 11.4334 3.96925 5.77269 4.69031C4.2162 4.88791 2.64858 5.03698 1.07817 4.99191C0.618742 4.97804 0.086921 5.03698 0.00895761 4.27085C-0.0745746 3.45619 0.440536 3.18925 0.952867 3.05406C2.95764 2.52713 4.99305 2.21513 7.02288 1.8754C13.221 0.835405 19.4497 0.474877 25.6979 0.318878C32.5253 0.145545 39.3526 -0.0139224 46.18 0.0242107L46.1828 0.0172706Z" fill="#A80021"/>
</svg>
